PathFileType	3	(X/Y/Z)	D:\minhoCalibration\240510\subject1_KPNP\preferred\preferred15.trc
DataRate	CameraRate	NumFrames	NumMarkers	Units	OrigDataRate	OrigDataStartFrame	OrigNumFrames
200.0	200.0	18	10	mm	200.0	364	228	
Frame#	Time	Left_Ankle_Outer1			Left_Ankle_Inner1			Left_Knee_Outer1			Left_Knee_Inner1			Left_Wrist1			Right_Wrist1			Right_Knee_Inner1			Right_Knee_Outer1			Right_Ankle_Inner1			Right_Ankle_Outer1			
		X1	Y1	Z1	X2	Y2	Z2	X3	Y3	Z3	X4	Y4	Z4	X5	Y5	Z5	X6	Y6	Z6	X7	Y7	Z7	X8	Y8	Z8	X9	Y9	Z9	X10	Y10	Z10	
364	1.81	-473.7446	135.85344	-593.5495	-528.70117	136.27882	-572.91974	-490.34924	582.24854	-477.67175	-591.26105	531.77069	-508.17947	-516.77283	979.54779	-671.86572	-716.07776	984.79132	-964.10907	-706.63123	510.07986	-934.47498	-735.90698	547.79181	-1034.0712	-614.1272	110.71905	-1101.7834	-695.03046	108.65273	-1181.7843
365	1.815	-475.00412	135.94429	-593.31085	-529.76825	136.49516	-572.12512	-488.47485	582.04614	-475.34778	-589.97327	532.03595	-504.98749	-515.2937	978.89459	-669.74677	-715.88458	983.57269	-962.0047	-705.94659	509.67932	-933.53192	-735.26416	547.43561	-1032.5518	-613.93524	110.61961	-1101.4784	-694.87433	108.70975	-1181.5201
366	1.82	-476.42062	135.86299	-593.0097	-530.92206	136.68938	-571.20959	-486.64383	581.76233	-473.00867	-588.64893	532.23669	-501.88376	-513.8703	978.03265	-668.12195	-715.06403	984.0614	-959.98254	-705.28735	509.04501	-932.4505	-735.07031	547.44366	-1031.5416	-613.75232	110.42771	-1101.1528	-694.71051	108.81146	-1181.1012
367	1.825	-477.75116	135.9073	-592.69916	-532.10187	136.86621	-570.36108	-484.83676	581.43152	-470.65271	-587.427	532.34698	-498.71338	-512.396	977.13214	-666.44373	-713.73792	983.26678	-957.82709	-704.82831	508.901	-931.07501	-734.47736	546.9726	-1029.8893	-613.5683	110.25701	-1100.715	-694.50867	108.89722	-1180.7312
368	1.83	-479.27469	135.79117	-592.27057	-533.40472	136.95743	-569.51025	-483.07663	581.00409	-468.31763	-586.19556	532.41302	-495.56299	-510.88251	976.16736	-664.79712	-713.25189	982.54883	-954.58069	-704.32233	508.45773	-929.67828	-734.08514	546.66675	-1028.4547	-613.27563	110.08212	-1100.3612	-694.33612	108.92182	-1180.3783
369	1.835	-480.82001	135.65875	-591.88293	-534.68433	137.10013	-568.52344	-481.30679	580.59161	-465.93878	-584.92102	532.56567	-492.33206	-509.34393	975.14465	-663.09491	-712.25439	982.17804	-952.9989	-703.66803	507.88229	-928.50366	-733.65717	546.31842	-1027.0515	-612.97729	109.89182	-1100.0276	-694.11847	109.24897	-1179.924
370	1.84	-482.46646	135.53711	-591.34918	-536.07794	137.17355	-567.4762	-479.57751	580.06927	-463.54199	-583.7179	532.56921	-489.12674	-507.76447	974.12177	-661.37695	-711.37787	982.3725	-951.49268	-703.33228	507.39844	-926.83142	-733.29163	546.00623	-1025.5417	-612.75116	109.73309	-1099.6101	-693.8725	109.23457	-1179.5597
371	1.845	-484.11789	135.33658	-590.78412	-537.65704	137.17926	-566.58801	-477.90976	579.48407	-461.16885	-582.49908	532.48352	-485.92075	-506.09445	972.98029	-659.74292	-710.02246	982.078	-949.79126	-702.52136	506.78485	-925.53619	-733.07257	545.86511	-1024.3901	-612.48938	109.46535	-1099.2329	-693.63202	109.37804	-1179.1165
372	1.85	-485.90137	135.05482	-590.09442	-539.1192	137.08972	-565.51703	-476.24158	578.87286	-458.8512	-581.31866	532.49664	-482.81363	-504.39453	971.82056	-658.02307	-710.50812	980.40985	-945.26483	-701.87183	506.12711	-924.16431	-732.77039	545.36981	-1022.8307	-612.19153	109.22136	-1098.8597	-693.35321	109.43651	-1178.6567
373	1.855	-487.81857	134.90575	-589.37189	-540.8244	136.97505	-564.35962	-474.54517	578.12665	-456.52322	-580.10144	532.29388	-479.74304	-502.66833	970.57538	-656.36157	-709.22552	980.50269	-944.66174	-701.52069	505.50241	-922.37872	-732.26184	544.78876	-1020.9943	-611.85889	108.88993	-1098.4774	-693.10901	109.50832	-1178.2045
374	1.86	-489.83585	134.58032	-588.50476	-542.54401	136.85573	-563.013	-472.91287	577.32892	-454.16757	-579.00336	532.09821	-476.61755	-500.90808	969.27209	-654.67419	-708.59216	980.289	-942.02533	-700.85291	504.70276	-920.90491	-732.0791	544.42792	-1019.6516	-611.53949	108.59809	-1098.0706	-692.85406	109.70049	-1177.7991
375	1.865	-492.01105	134.1646	-587.61383	-544.3728	136.63206	-561.75928	-471.29706	576.44171	-451.78601	-577.85907	531.87695	-473.461	-499.17068	967.85754	-652.96844	-708.1925	979.5011	-938.96606	-700.16785	503.86984	-920.07184	-731.90247	543.83435	-1017.9224	-611.20227	108.32926	-1097.8364	-692.65948	109.51045	-1177.4508
376	1.87	-494.20181	133.79491	-586.8382	-546.0766	136.44139	-560.13086	-469.67737	575.48413	-449.40213	-576.82037	531.48883	-470.34869	-497.42783	966.36005	-651.26178	-707.82977	978.57959	-935.71533	-699.3067	502.90598	-918.01007	-731.54584	543.06616	-1016.0575	-610.81067	108.06582	-1097.543	-692.39844	109.66906	-1176.9877
377	1.875	-496.48508	133.34874	-585.91663	-548.10535	136.18842	-558.69897	-468.01227	574.46826	-447.01254	-575.72015	531.09595	-467.18851	-495.75925	964.59882	-649.77051	-706.92645	978.40186	-933.72424	-699.03033	502.14468	-916.14099	-731.53723	542.58563	-1014.4412	-610.55573	107.79396	-1097.2812	-692.25226	109.66741	-1176.5918
378	1.88	-498.77069	133.05731	-585.02155	-550.01282	135.86127	-557.20691	-466.45233	573.3006	-444.63644	-574.57513	530.56134	-463.91946	-493.97287	963.17352	-647.65723	-706.54718	977.37677	-930.89661	-698.42413	501.23703	-914.38715	-731.46362	541.89172	-1012.6124	-610.25366	107.52053	-1096.9906	-692.10687	109.84528	-1176.1615
379	1.885	-501.04541	132.51172	-584.11597	-551.87872	135.62675	-555.75562	-464.79315	572.14349	-442.23505	-573.49298	529.99725	-460.63898	-492.01828	961.16388	-646.61749	-705.84021	976.85162	-928.23682	-697.8963	500.2157	-912.61304	-731.5567	541.14178	-1010.7582	-609.9433	107.25929	-1096.7885	-691.95575	109.51793	-1175.9252
380	1.89	-503.32053	132.20163	-583.36084	-553.61719	135.22391	-554.16144	-463.11713	570.96045	-439.83881	-572.41956	529.39215	-457.24725	-490.16614	959.34027	-644.82214	-705.33075	975.77539	-925.96472	-697.21545	499.20465	-910.8996	-731.70367	540.29437	-1008.5922	-609.67108	107.07871	-1096.5713	-692.06818	108.88743	-1175.4067
381	1.895	-505.57208	131.8398	-582.55133	-555.3916	134.86838	-552.70105	-461.49109	569.7207	-437.42429	-571.31097	528.72241	-453.77719	-488.43332	957.32642	-643.08618	-705.17059	974.54749	-921.96332	-696.79749	497.7731	-909.93286	-732.05719	539.73627	-1006.6403	-609.547	106.91309	-1096.3405	-691.87543	109.50685	-1175.233
